<svg width="500" height="150" viewBox="0 0 500 150" fill="none" xmlns="http://www.w3.org/2000/svg">
<mask id="path-1-outside-1_32_12" maskUnits="userSpaceOnUse" x="2" y="47" width="498" height="60" fill="black">
<rect fill="white" x="2" y="47" width="498" height="60"/>
<path d="M21.191 93H7.898V53.877H21.191V93ZM46.8783 62.067C52.7583 62.067 55.6983 64.923 55.6983 70.635V93H42.4053V73.47C42.4053 72.798 42.0483 72.462 41.3343 72.462C40.6623 72.462 39.9063 72.672 39.0663 73.092V93H25.9623V62.823H37.8693L38.2473 64.776C40.8933 62.97 43.7703 62.067 46.8783 62.067ZM84.5035 93.63C81.2275 93.63 78.9805 92.811 77.7625 91.173H77.5105C75.5785 92.811 73.2895 93.63 70.6435 93.63C66.2755 93.63 63.1675 92.244 61.3195 89.472C59.4715 86.7 58.5475 82.773 58.5475 77.691C58.5475 72.609 59.5555 68.745 61.5715 66.099C63.6295 63.411 66.5695 62.067 70.3915 62.067C72.5755 62.067 74.3395 62.403 75.6835 63.075V52.617H88.3465V83.55C88.3465 84.096 88.5355 84.474 88.9135 84.684C89.3335 84.894 90.0475 84.999 91.0555 84.999L89.9215 93.378C87.7375 93.546 85.9315 93.63 84.5035 93.63ZM73.6675 71.643C72.8275 71.643 72.2815 72.126 72.0295 73.092C71.8195 74.058 71.7145 75.738 71.7145 78.132C71.7145 80.526 71.8195 82.206 72.0295 83.172C72.2395 84.096 72.7645 84.558 73.6045 84.558C74.4865 84.558 75.1795 84.474 75.6835 84.306V72.084C74.9695 71.79 74.2975 71.643 73.6675 71.643ZM102.646 93.63C96.6816 93.63 93.6996 90.774 93.6996 85.062V62.823H106.93V82.605C106.93 83.277 107.224 83.613 107.812 83.613C108.442 83.613 109.261 83.403 110.269 82.983V62.823H123.436V92.874H110.836V91.299H110.458C108.022 92.853 105.418 93.63 102.646 93.63ZM145.427 93.63C143.873 93.63 142.319 93.336 140.765 92.748V101.631H127.661V62.823H138.497L139.001 64.209C140.975 62.781 143.348 62.067 146.12 62.067C150.656 62.067 153.722 63.243 155.318 65.595C156.914 67.905 157.712 71.874 157.712 77.502C157.712 83.088 156.851 87.183 155.129 89.787C153.407 92.349 150.173 93.63 145.427 93.63ZM142.655 84.684C143.537 84.684 144.083 84.222 144.293 83.298C144.503 82.332 144.608 80.673 144.608 78.321C144.608 75.927 144.482 74.247 144.23 73.281C143.978 72.273 143.432 71.769 142.592 71.769C142.046 71.769 141.395 71.937 140.639 72.273V84.432C141.395 84.6 142.067 84.684 142.655 84.684ZM187.225 70.95L186.847 83.55C186.847 84.138 187.057 84.537 187.477 84.747C187.939 84.915 188.737 84.999 189.871 84.999L188.674 93.378C186.154 93.546 184.453 93.63 183.571 93.63C180.505 93.63 178.279 92.811 176.893 91.173H176.452C174.436 92.811 171.895 93.63 168.829 93.63C165.805 93.63 163.495 92.832 161.899 91.236C160.345 89.598 159.568 87.351 159.568 84.495C159.568 80.967 160.744 78.51 163.096 77.124C165.49 75.738 169.27 74.856 174.436 74.478V73.344C174.436 72.588 174.037 72.21 173.239 72.21C171.097 72.21 167.422 72.861 162.214 74.163L160.261 64.209C166.267 62.781 171.433 62.067 175.759 62.067C180.085 62.067 183.067 62.781 184.705 64.209C186.385 65.637 187.225 67.884 187.225 70.95ZM172.987 85.503C174.205 85.503 174.814 84.873 174.814 83.613V81.219C172.63 81.513 171.538 82.353 171.538 83.739C171.538 84.915 172.021 85.503 172.987 85.503ZM215.135 83.613C215.135 90.291 211.25 93.63 203.48 93.63C199.448 93.63 195.542 93.189 191.762 92.307L192.581 83.046C197.831 84.306 201.317 84.936 203.039 84.936C203.627 84.936 203.921 84.747 203.921 84.369C203.921 83.991 203.585 83.676 202.913 83.424C198.587 81.954 195.437 80.4 193.463 78.762C191.489 77.124 190.502 74.772 190.502 71.706C190.502 68.64 191.573 66.267 193.715 64.587C195.899 62.907 198.818 62.067 202.472 62.067C206.168 62.067 210.221 62.487 214.631 63.327L213.308 72.84C207.764 71.748 204.404 71.202 203.228 71.202C202.682 71.202 202.409 71.412 202.409 71.832C202.409 72.168 202.766 72.462 203.48 72.714C206.966 73.848 209.486 74.982 211.04 76.116C212.594 77.208 213.665 78.342 214.253 79.518C214.841 80.694 215.135 82.059 215.135 83.613ZM244.072 70.95L243.694 83.55C243.694 84.138 243.904 84.537 244.324 84.747C244.786 84.915 245.584 84.999 246.718 84.999L245.521 93.378C243.001 93.546 241.3 93.63 240.418 93.63C237.352 93.63 235.126 92.811 233.74 91.173H233.299C231.283 92.811 228.742 93.63 225.676 93.63C222.652 93.63 220.342 92.832 218.746 91.236C217.192 89.598 216.415 87.351 216.415 84.495C216.415 80.967 217.591 78.51 219.943 77.124C222.337 75.738 226.117 74.856 231.283 74.478V73.344C231.283 72.588 230.884 72.21 230.086 72.21C227.944 72.21 224.269 72.861 219.061 74.163L217.108 64.209C223.114 62.781 228.28 62.067 232.606 62.067C236.932 62.067 239.914 62.781 241.552 64.209C243.232 65.637 244.072 67.884 244.072 70.95ZM229.834 85.503C231.052 85.503 231.661 84.873 231.661 83.613V81.219C229.477 81.513 228.385 82.353 228.385 83.739C228.385 84.915 228.868 85.503 229.834 85.503ZM292.422 66.477C292.422 68.997 292.002 71.013 291.162 72.525C290.364 73.995 289.104 75.297 287.382 76.431L293.241 93H279.318L275.412 79.518H274.404V93H261.489V53.877H278.184C283.056 53.877 286.647 54.906 288.957 56.964C291.267 58.98 292.422 62.151 292.422 66.477ZM275.727 71.832C276.693 71.832 277.365 71.559 277.743 71.013C278.163 70.425 278.373 69.417 278.373 67.989C278.373 66.561 278.163 65.574 277.743 65.028C277.323 64.482 276.672 64.209 275.79 64.209H274.152V71.832H275.727ZM310.722 72.21C309.84 72.21 309.231 72.483 308.895 73.029C308.559 73.575 308.391 74.415 308.391 75.549H312.927V74.541C312.927 72.987 312.192 72.21 310.722 72.21ZM295.413 77.817C295.413 72.819 296.715 68.955 299.319 66.225C301.965 63.453 305.829 62.067 310.911 62.067C316.035 62.067 319.647 63.117 321.747 65.217C323.889 67.317 324.96 70.32 324.96 74.226C324.96 75.78 324.792 78.132 324.456 81.282H308.643C308.811 83.55 310.197 84.684 312.801 84.684C314.019 84.684 317.211 84.243 322.377 83.361L323.448 91.866C318.996 93.042 314.838 93.63 310.974 93.63C305.934 93.63 302.07 92.244 299.382 89.472C296.736 86.7 295.413 82.815 295.413 77.817ZM345.685 93.63C344.131 93.63 342.577 93.336 341.023 92.748V101.631H327.919V62.823H338.755L339.259 64.209C341.233 62.781 343.606 62.067 346.378 62.067C350.914 62.067 353.98 63.243 355.576 65.595C357.172 67.905 357.97 71.874 357.97 77.502C357.97 83.088 357.109 87.183 355.387 89.787C353.665 92.349 350.431 93.63 345.685 93.63ZM342.913 84.684C343.795 84.684 344.341 84.222 344.551 83.298C344.761 82.332 344.866 80.673 344.866 78.321C344.866 75.927 344.74 74.247 344.488 73.281C344.236 72.273 343.69 71.769 342.85 71.769C342.304 71.769 341.653 71.937 340.897 72.273V84.432C341.653 84.6 342.325 84.684 342.913 84.684ZM359.889 77.817C359.889 72.273 361.107 68.262 363.543 65.784C366.021 63.306 369.864 62.067 375.072 62.067C380.322 62.067 384.144 63.285 386.538 65.721C388.932 68.157 390.129 72.168 390.129 77.754C390.129 83.298 388.953 87.33 386.601 89.85C384.291 92.37 380.469 93.63 375.135 93.63C369.843 93.63 365.979 92.37 363.543 89.85C361.107 87.33 359.889 83.319 359.889 77.817ZM376.71 72.462C376.5 71.706 375.954 71.328 375.072 71.328C374.19 71.328 373.623 71.706 373.371 72.462C373.161 73.176 373.056 74.73 373.056 77.124V78.636C373.056 81.324 373.161 83.067 373.371 83.865C373.623 84.621 374.19 84.999 375.072 84.999C375.954 84.999 376.5 84.621 376.71 83.865C376.962 83.067 377.088 81.429 377.088 78.951V77.187C377.088 74.751 376.962 73.176 376.71 72.462ZM406.054 76.116V93H393.076V62.823H404.29L404.668 64.839H404.92C405.928 63.915 407.083 63.285 408.385 62.949C409.687 62.571 411.598 62.382 414.118 62.382L413.74 72.84H409.456C408.196 72.84 407.314 73.071 406.81 73.533C406.306 73.995 406.054 74.856 406.054 76.116ZM427.784 93.63C424.508 93.63 422.093 93.021 420.539 91.803C419.027 90.543 418.271 88.401 418.271 85.377V71.706H414.932V63.201H418.901L419.72 57.594H431.375V63.201H437.108V71.706H431.312V83.361C431.312 83.907 431.564 84.18 432.068 84.18C432.11 84.18 433.769 84.096 437.045 83.928L436.667 93C432.467 93.42 429.506 93.63 427.784 93.63ZM454.194 72.21C453.312 72.21 452.703 72.483 452.367 73.029C452.031 73.575 451.863 74.415 451.863 75.549H456.399V74.541C456.399 72.987 455.664 72.21 454.194 72.21ZM438.885 77.817C438.885 72.819 440.187 68.955 442.791 66.225C445.437 63.453 449.301 62.067 454.383 62.067C459.507 62.067 463.119 63.117 465.219 65.217C467.361 67.317 468.432 70.32 468.432 74.226C468.432 75.78 468.264 78.132 467.928 81.282H452.115C452.283 83.55 453.669 84.684 456.273 84.684C457.491 84.684 460.683 84.243 465.849 83.361L466.92 91.866C462.468 93.042 458.31 93.63 454.446 93.63C449.406 93.63 445.542 92.244 442.854 89.472C440.208 86.7 438.885 82.815 438.885 77.817ZM494.513 83.613C494.513 90.291 490.628 93.63 482.858 93.63C478.826 93.63 474.92 93.189 471.14 92.307L471.959 83.046C477.209 84.306 480.695 84.936 482.417 84.936C483.005 84.936 483.299 84.747 483.299 84.369C483.299 83.991 482.963 83.676 482.291 83.424C477.965 81.954 474.815 80.4 472.841 78.762C470.867 77.124 469.88 74.772 469.88 71.706C469.88 68.64 470.951 66.267 473.093 64.587C475.277 62.907 478.196 62.067 481.85 62.067C485.546 62.067 489.599 62.487 494.009 63.327L492.686 72.84C487.142 71.748 483.782 71.202 482.606 71.202C482.06 71.202 481.787 71.412 481.787 71.832C481.787 72.168 482.144 72.462 482.858 72.714C486.344 73.848 488.864 74.982 490.418 76.116C491.972 77.208 493.043 78.342 493.631 79.518C494.219 80.694 494.513 82.059 494.513 83.613Z"/>
</mask>
<path d="M21.191 93H7.898V53.877H21.191V93ZM46.8783 62.067C52.7583 62.067 55.6983 64.923 55.6983 70.635V93H42.4053V73.47C42.4053 72.798 42.0483 72.462 41.3343 72.462C40.6623 72.462 39.9063 72.672 39.0663 73.092V93H25.9623V62.823H37.8693L38.2473 64.776C40.8933 62.97 43.7703 62.067 46.8783 62.067ZM84.5035 93.63C81.2275 93.63 78.9805 92.811 77.7625 91.173H77.5105C75.5785 92.811 73.2895 93.63 70.6435 93.63C66.2755 93.63 63.1675 92.244 61.3195 89.472C59.4715 86.7 58.5475 82.773 58.5475 77.691C58.5475 72.609 59.5555 68.745 61.5715 66.099C63.6295 63.411 66.5695 62.067 70.3915 62.067C72.5755 62.067 74.3395 62.403 75.6835 63.075V52.617H88.3465V83.55C88.3465 84.096 88.5355 84.474 88.9135 84.684C89.3335 84.894 90.0475 84.999 91.0555 84.999L89.9215 93.378C87.7375 93.546 85.9315 93.63 84.5035 93.63ZM73.6675 71.643C72.8275 71.643 72.2815 72.126 72.0295 73.092C71.8195 74.058 71.7145 75.738 71.7145 78.132C71.7145 80.526 71.8195 82.206 72.0295 83.172C72.2395 84.096 72.7645 84.558 73.6045 84.558C74.4865 84.558 75.1795 84.474 75.6835 84.306V72.084C74.9695 71.79 74.2975 71.643 73.6675 71.643ZM102.646 93.63C96.6816 93.63 93.6996 90.774 93.6996 85.062V62.823H106.93V82.605C106.93 83.277 107.224 83.613 107.812 83.613C108.442 83.613 109.261 83.403 110.269 82.983V62.823H123.436V92.874H110.836V91.299H110.458C108.022 92.853 105.418 93.63 102.646 93.63ZM145.427 93.63C143.873 93.63 142.319 93.336 140.765 92.748V101.631H127.661V62.823H138.497L139.001 64.209C140.975 62.781 143.348 62.067 146.12 62.067C150.656 62.067 153.722 63.243 155.318 65.595C156.914 67.905 157.712 71.874 157.712 77.502C157.712 83.088 156.851 87.183 155.129 89.787C153.407 92.349 150.173 93.63 145.427 93.63ZM142.655 84.684C143.537 84.684 144.083 84.222 144.293 83.298C144.503 82.332 144.608 80.673 144.608 78.321C144.608 75.927 144.482 74.247 144.23 73.281C143.978 72.273 143.432 71.769 142.592 71.769C142.046 71.769 141.395 71.937 140.639 72.273V84.432C141.395 84.6 142.067 84.684 142.655 84.684ZM187.225 70.95L186.847 83.55C186.847 84.138 187.057 84.537 187.477 84.747C187.939 84.915 188.737 84.999 189.871 84.999L188.674 93.378C186.154 93.546 184.453 93.63 183.571 93.63C180.505 93.63 178.279 92.811 176.893 91.173H176.452C174.436 92.811 171.895 93.63 168.829 93.63C165.805 93.63 163.495 92.832 161.899 91.236C160.345 89.598 159.568 87.351 159.568 84.495C159.568 80.967 160.744 78.51 163.096 77.124C165.49 75.738 169.27 74.856 174.436 74.478V73.344C174.436 72.588 174.037 72.21 173.239 72.21C171.097 72.21 167.422 72.861 162.214 74.163L160.261 64.209C166.267 62.781 171.433 62.067 175.759 62.067C180.085 62.067 183.067 62.781 184.705 64.209C186.385 65.637 187.225 67.884 187.225 70.95ZM172.987 85.503C174.205 85.503 174.814 84.873 174.814 83.613V81.219C172.63 81.513 171.538 82.353 171.538 83.739C171.538 84.915 172.021 85.503 172.987 85.503ZM215.135 83.613C215.135 90.291 211.25 93.63 203.48 93.63C199.448 93.63 195.542 93.189 191.762 92.307L192.581 83.046C197.831 84.306 201.317 84.936 203.039 84.936C203.627 84.936 203.921 84.747 203.921 84.369C203.921 83.991 203.585 83.676 202.913 83.424C198.587 81.954 195.437 80.4 193.463 78.762C191.489 77.124 190.502 74.772 190.502 71.706C190.502 68.64 191.573 66.267 193.715 64.587C195.899 62.907 198.818 62.067 202.472 62.067C206.168 62.067 210.221 62.487 214.631 63.327L213.308 72.84C207.764 71.748 204.404 71.202 203.228 71.202C202.682 71.202 202.409 71.412 202.409 71.832C202.409 72.168 202.766 72.462 203.48 72.714C206.966 73.848 209.486 74.982 211.04 76.116C212.594 77.208 213.665 78.342 214.253 79.518C214.841 80.694 215.135 82.059 215.135 83.613ZM244.072 70.95L243.694 83.55C243.694 84.138 243.904 84.537 244.324 84.747C244.786 84.915 245.584 84.999 246.718 84.999L245.521 93.378C243.001 93.546 241.3 93.63 240.418 93.63C237.352 93.63 235.126 92.811 233.74 91.173H233.299C231.283 92.811 228.742 93.63 225.676 93.63C222.652 93.63 220.342 92.832 218.746 91.236C217.192 89.598 216.415 87.351 216.415 84.495C216.415 80.967 217.591 78.51 219.943 77.124C222.337 75.738 226.117 74.856 231.283 74.478V73.344C231.283 72.588 230.884 72.21 230.086 72.21C227.944 72.21 224.269 72.861 219.061 74.163L217.108 64.209C223.114 62.781 228.28 62.067 232.606 62.067C236.932 62.067 239.914 62.781 241.552 64.209C243.232 65.637 244.072 67.884 244.072 70.95ZM229.834 85.503C231.052 85.503 231.661 84.873 231.661 83.613V81.219C229.477 81.513 228.385 82.353 228.385 83.739C228.385 84.915 228.868 85.503 229.834 85.503ZM292.422 66.477C292.422 68.997 292.002 71.013 291.162 72.525C290.364 73.995 289.104 75.297 287.382 76.431L293.241 93H279.318L275.412 79.518H274.404V93H261.489V53.877H278.184C283.056 53.877 286.647 54.906 288.957 56.964C291.267 58.98 292.422 62.151 292.422 66.477ZM275.727 71.832C276.693 71.832 277.365 71.559 277.743 71.013C278.163 70.425 278.373 69.417 278.373 67.989C278.373 66.561 278.163 65.574 277.743 65.028C277.323 64.482 276.672 64.209 275.79 64.209H274.152V71.832H275.727ZM310.722 72.21C309.84 72.21 309.231 72.483 308.895 73.029C308.559 73.575 308.391 74.415 308.391 75.549H312.927V74.541C312.927 72.987 312.192 72.21 310.722 72.21ZM295.413 77.817C295.413 72.819 296.715 68.955 299.319 66.225C301.965 63.453 305.829 62.067 310.911 62.067C316.035 62.067 319.647 63.117 321.747 65.217C323.889 67.317 324.96 70.32 324.96 74.226C324.96 75.78 324.792 78.132 324.456 81.282H308.643C308.811 83.55 310.197 84.684 312.801 84.684C314.019 84.684 317.211 84.243 322.377 83.361L323.448 91.866C318.996 93.042 314.838 93.63 310.974 93.63C305.934 93.63 302.07 92.244 299.382 89.472C296.736 86.7 295.413 82.815 295.413 77.817ZM345.685 93.63C344.131 93.63 342.577 93.336 341.023 92.748V101.631H327.919V62.823H338.755L339.259 64.209C341.233 62.781 343.606 62.067 346.378 62.067C350.914 62.067 353.98 63.243 355.576 65.595C357.172 67.905 357.97 71.874 357.97 77.502C357.97 83.088 357.109 87.183 355.387 89.787C353.665 92.349 350.431 93.63 345.685 93.63ZM342.913 84.684C343.795 84.684 344.341 84.222 344.551 83.298C344.761 82.332 344.866 80.673 344.866 78.321C344.866 75.927 344.74 74.247 344.488 73.281C344.236 72.273 343.69 71.769 342.85 71.769C342.304 71.769 341.653 71.937 340.897 72.273V84.432C341.653 84.6 342.325 84.684 342.913 84.684ZM359.889 77.817C359.889 72.273 361.107 68.262 363.543 65.784C366.021 63.306 369.864 62.067 375.072 62.067C380.322 62.067 384.144 63.285 386.538 65.721C388.932 68.157 390.129 72.168 390.129 77.754C390.129 83.298 388.953 87.33 386.601 89.85C384.291 92.37 380.469 93.63 375.135 93.63C369.843 93.63 365.979 92.37 363.543 89.85C361.107 87.33 359.889 83.319 359.889 77.817ZM376.71 72.462C376.5 71.706 375.954 71.328 375.072 71.328C374.19 71.328 373.623 71.706 373.371 72.462C373.161 73.176 373.056 74.73 373.056 77.124V78.636C373.056 81.324 373.161 83.067 373.371 83.865C373.623 84.621 374.19 84.999 375.072 84.999C375.954 84.999 376.5 84.621 376.71 83.865C376.962 83.067 377.088 81.429 377.088 78.951V77.187C377.088 74.751 376.962 73.176 376.71 72.462ZM406.054 76.116V93H393.076V62.823H404.29L404.668 64.839H404.92C405.928 63.915 407.083 63.285 408.385 62.949C409.687 62.571 411.598 62.382 414.118 62.382L413.74 72.84H409.456C408.196 72.84 407.314 73.071 406.81 73.533C406.306 73.995 406.054 74.856 406.054 76.116ZM427.784 93.63C424.508 93.63 422.093 93.021 420.539 91.803C419.027 90.543 418.271 88.401 418.271 85.377V71.706H414.932V63.201H418.901L419.72 57.594H431.375V63.201H437.108V71.706H431.312V83.361C431.312 83.907 431.564 84.18 432.068 84.18C432.11 84.18 433.769 84.096 437.045 83.928L436.667 93C432.467 93.42 429.506 93.63 427.784 93.63ZM454.194 72.21C453.312 72.21 452.703 72.483 452.367 73.029C452.031 73.575 451.863 74.415 451.863 75.549H456.399V74.541C456.399 72.987 455.664 72.21 454.194 72.21ZM438.885 77.817C438.885 72.819 440.187 68.955 442.791 66.225C445.437 63.453 449.301 62.067 454.383 62.067C459.507 62.067 463.119 63.117 465.219 65.217C467.361 67.317 468.432 70.32 468.432 74.226C468.432 75.78 468.264 78.132 467.928 81.282H452.115C452.283 83.55 453.669 84.684 456.273 84.684C457.491 84.684 460.683 84.243 465.849 83.361L466.92 91.866C462.468 93.042 458.31 93.63 454.446 93.63C449.406 93.63 445.542 92.244 442.854 89.472C440.208 86.7 438.885 82.815 438.885 77.817ZM494.513 83.613C494.513 90.291 490.628 93.63 482.858 93.63C478.826 93.63 474.92 93.189 471.14 92.307L471.959 83.046C477.209 84.306 480.695 84.936 482.417 84.936C483.005 84.936 483.299 84.747 483.299 84.369C483.299 83.991 482.963 83.676 482.291 83.424C477.965 81.954 474.815 80.4 472.841 78.762C470.867 77.124 469.88 74.772 469.88 71.706C469.88 68.64 470.951 66.267 473.093 64.587C475.277 62.907 478.196 62.067 481.85 62.067C485.546 62.067 489.599 62.487 494.009 63.327L492.686 72.84C487.142 71.748 483.782 71.202 482.606 71.202C482.06 71.202 481.787 71.412 481.787 71.832C481.787 72.168 482.144 72.462 482.858 72.714C486.344 73.848 488.864 74.982 490.418 76.116C491.972 77.208 493.043 78.342 493.631 79.518C494.219 80.694 494.513 82.059 494.513 83.613Z" fill="#077D3F"/>
<path d="M21.191 93V98H26.191V93H21.191ZM7.898 93H2.898V98H7.898V93ZM7.898 53.877V48.877H2.898V53.877H7.898ZM21.191 53.877H26.191V48.877H21.191V53.877ZM21.191 88H7.898V98H21.191V88ZM12.898 93V53.877H2.898V93H12.898ZM7.898 58.877H21.191V48.877H7.898V58.877ZM16.191 53.877V93H26.191V53.877H16.191ZM55.6983 93V98H60.6983V93H55.6983ZM42.4053 93H37.4053V98H42.4053V93ZM39.0663 73.092L36.8302 68.6199L34.0663 70.0018V73.092H39.0663ZM39.0663 93V98H44.0663V93H39.0663ZM25.9623 93H20.9623V98H25.9623V93ZM25.9623 62.823V57.823H20.9623V62.823H25.9623ZM37.8693 62.823L42.7782 61.8729L41.9943 57.823H37.8693V62.823ZM38.2473 64.776L33.3384 65.7261L34.7837 73.1937L41.066 68.9057L38.2473 64.776ZM46.8783 67.067C49.0833 67.067 49.8121 67.6038 50.0093 67.7954C50.1797 67.9609 50.6983 68.5871 50.6983 70.635H60.6983C60.6983 66.9709 59.7468 63.3131 56.9772 60.6226C54.2345 57.9582 50.5532 57.067 46.8783 57.067V67.067ZM50.6983 70.635V93H60.6983V70.635H50.6983ZM55.6983 88H42.4053V98H55.6983V88ZM47.4053 93V73.47H37.4053V93H47.4053ZM47.4053 73.47C47.4053 72.2832 47.0754 70.4952 45.5643 69.073C44.1102 67.7044 42.389 67.462 41.3343 67.462V77.462C40.9935 77.462 39.8079 77.3876 38.7107 76.355C37.5566 75.2688 37.4053 73.9848 37.4053 73.47H47.4053ZM41.3343 67.462C39.6403 67.462 38.105 67.9825 36.8302 68.6199L41.3023 77.5641C41.3937 77.5185 41.4648 77.4875 41.5163 77.4672C41.5679 77.4468 41.5959 77.4386 41.6015 77.4371C41.6147 77.4334 41.5187 77.462 41.3343 77.462V67.462ZM34.0663 73.092V93H44.0663V73.092H34.0663ZM39.0663 88H25.9623V98H39.0663V88ZM30.9623 93V62.823H20.9623V93H30.9623ZM25.9623 67.823H37.8693V57.823H25.9623V67.823ZM32.9604 63.7731L33.3384 65.7261L43.1562 63.8259L42.7782 61.8729L32.9604 63.7731ZM41.066 68.9057C42.9085 67.6482 44.8084 67.067 46.8783 67.067V57.067C42.7322 57.067 38.8781 58.2918 35.4285 60.6462L41.066 68.9057ZM77.7625 91.173L81.7749 88.1895L80.2754 86.173H77.7625V91.173ZM77.5105 91.173V86.173H75.6762L74.2771 87.3592L77.5105 91.173ZM61.3195 89.472L57.1593 92.2455L57.1593 92.2455L61.3195 89.472ZM61.5715 66.099L57.6015 63.0594L57.5944 63.0688L61.5715 66.099ZM75.6835 63.075L73.4475 67.5471L80.6835 71.1652V63.075H75.6835ZM75.6835 52.617V47.617H70.6835V52.617H75.6835ZM88.3465 52.617H93.3465V47.617H88.3465V52.617ZM88.9135 84.684L86.4853 89.0548L86.5803 89.1075L86.6775 89.1561L88.9135 84.684ZM91.0555 84.999L96.0104 85.6696L96.7778 79.999H91.0555V84.999ZM89.9215 93.378L90.305 98.3633L94.3344 98.0533L94.8764 94.0486L89.9215 93.378ZM72.0295 73.092L67.1915 71.8299L67.1655 71.9294L67.1437 72.0298L72.0295 73.092ZM72.0295 83.172L67.1437 84.2341L67.1487 84.2572L67.1539 84.2801L72.0295 83.172ZM75.6835 84.306L77.2647 89.0494L80.6835 87.9098V84.306H75.6835ZM75.6835 72.084H80.6835V68.7355L77.5873 67.4606L75.6835 72.084ZM84.5035 88.63C83.2486 88.63 82.4868 88.4687 82.0735 88.3181C81.7069 88.1844 81.7067 88.0978 81.7749 88.1895L73.7502 94.1565C76.368 97.677 80.6115 98.63 84.5035 98.63V88.63ZM77.7625 86.173H77.5105V96.173H77.7625V86.173ZM74.2771 87.3592C73.2913 88.195 72.1628 88.63 70.6435 88.63V98.63C74.4163 98.63 77.8657 97.427 80.744 94.9868L74.2771 87.3592ZM70.6435 88.63C67.3674 88.63 66.1193 87.6578 65.4798 86.6985L57.1593 92.2455C60.2157 96.8302 65.1836 98.63 70.6435 98.63V88.63ZM65.4798 86.6985C64.397 85.0743 63.5475 82.2693 63.5475 77.691H53.5475C53.5475 83.2767 54.5461 88.3257 57.1593 92.2455L65.4798 86.6985ZM63.5475 77.691C63.5475 73.1576 64.4647 70.5519 65.5487 69.1292L57.5944 63.0688C54.6464 66.9381 53.5475 72.0604 53.5475 77.691H63.5475ZM65.5416 69.1386C66.5224 67.8575 67.8968 67.067 70.3915 67.067V57.067C65.2423 57.067 60.7367 58.9645 57.6015 63.0594L65.5416 69.1386ZM70.3915 67.067C72.1255 67.067 73.0401 67.3435 73.4475 67.5471L77.9196 58.6029C75.6389 57.4625 73.0256 57.067 70.3915 57.067V67.067ZM80.6835 63.075V52.617H70.6835V63.075H80.6835ZM75.6835 57.617H88.3465V47.617H75.6835V57.617ZM83.3465 52.617V83.55H93.3465V52.617H83.3465ZM83.3465 83.55C83.3465 85.3541 84.0859 87.7218 86.4853 89.0548L91.3418 80.3132C92.0119 80.6855 92.5933 81.2727 92.9604 82.0069C93.2993 82.6846 93.3465 83.2658 93.3465 83.55H83.3465ZM86.6775 89.1561C88.2214 89.9281 89.9652 89.999 91.0555 89.999V79.999C90.8886 79.999 90.7578 79.9946 90.659 79.9886C90.559 79.9825 90.5058 79.9755 90.4915 79.9735C90.4749 79.971 90.5241 79.9771 90.6219 80.0042C90.6726 80.0183 90.7432 80.04 90.8295 80.0721C90.9155 80.1041 91.0244 80.1493 91.1496 80.2119L86.6775 89.1561ZM86.1007 84.3284L84.9667 92.7074L94.8764 94.0486L96.0104 85.6696L86.1007 84.3284ZM89.5381 88.3927C87.4222 88.5555 85.7553 88.63 84.5035 88.63V98.63C86.1078 98.63 88.0529 98.5365 90.305 98.3633L89.5381 88.3927ZM73.6675 66.643C72.2249 66.643 70.6403 67.088 69.3152 68.2603C68.0702 69.3616 67.4781 70.7311 67.1915 71.8299L76.8676 74.3541C76.833 74.4869 76.6399 75.1319 75.9409 75.7502C75.1618 76.4395 74.2702 76.643 73.6675 76.643V66.643ZM67.1437 72.0298C66.8075 73.5763 66.7145 75.742 66.7145 78.132H76.7145C76.7145 75.734 76.8316 74.5397 76.9154 74.1541L67.1437 72.0298ZM66.7145 78.132C66.7145 80.522 66.8075 82.6877 67.1437 84.2341L76.9154 82.1098C76.8316 81.7243 76.7145 80.53 76.7145 78.132H66.7145ZM67.1539 84.2801C67.4106 85.4096 67.989 86.8311 69.2776 87.9651C70.6289 89.1542 72.2253 89.558 73.6045 89.558V79.558C74.1437 79.558 75.0577 79.7308 75.8839 80.4579C76.6475 81.1299 76.8585 81.8584 76.9052 82.0639L67.1539 84.2801ZM73.6045 89.558C74.7185 89.558 76.025 89.4626 77.2647 89.0494L74.1024 79.5626C74.2498 79.5135 74.2948 79.5179 74.1841 79.5313C74.0812 79.5438 73.8941 79.558 73.6045 79.558V89.558ZM80.6835 84.306V72.084H70.6835V84.306H80.6835ZM77.5873 67.4606C76.4018 66.9725 75.08 66.643 73.6675 66.643V76.643C73.5151 76.643 73.5373 76.6075 73.7798 76.7074L77.5873 67.4606ZM93.6996 62.823V57.823H88.6996V62.823H93.6996ZM106.93 62.823H111.93V57.823H106.93V62.823ZM110.269 82.983L112.192 87.5984L115.269 86.3163V82.983H110.269ZM110.269 62.823V57.823H105.269V62.823H110.269ZM123.436 62.823H128.436V57.823H123.436V62.823ZM123.436 92.874V97.874H128.436V92.874H123.436ZM110.836 92.874H105.836V97.874H110.836V92.874ZM110.836 91.299H115.836V86.299H110.836V91.299ZM110.458 91.299V86.299H108.999L107.768 87.0837L110.458 91.299ZM102.646 88.63C100.382 88.63 99.6112 88.0846 99.3945 87.877C99.2181 87.708 98.6996 87.091 98.6996 85.062H88.6996C88.6996 88.745 89.6721 92.412 92.4776 95.099C95.2429 97.7474 98.9455 98.63 102.646 98.63V88.63ZM98.6996 85.062V62.823H88.6996V85.062H98.6996ZM93.6996 67.823H106.93V57.823H93.6996V67.823ZM101.93 62.823V82.605H111.93V62.823H101.93ZM101.93 82.605C101.93 83.5599 102.124 85.2099 103.387 86.6535C104.762 88.2247 106.56 88.613 107.812 88.613V78.613C108.475 78.613 109.832 78.8333 110.913 80.0685C111.882 81.1761 111.93 82.3221 111.93 82.605H101.93ZM107.812 88.613C109.417 88.613 110.956 88.1134 112.192 87.5984L108.345 78.3676C108.003 78.5105 107.778 78.581 107.656 78.6122C107.524 78.6461 107.593 78.613 107.812 78.613V88.613ZM115.269 82.983V62.823H105.269V82.983H115.269ZM110.269 67.823H123.436V57.823H110.269V67.823ZM118.436 62.823V92.874H128.436V62.823H118.436ZM123.436 87.874H110.836V97.874H123.436V87.874ZM115.836 92.874V91.299H105.836V92.874H115.836ZM110.836 86.299H110.458V96.299H110.836V86.299ZM107.768 87.0837C106.1 88.1481 104.423 88.63 102.646 88.63V98.63C106.412 98.63 109.943 97.5579 113.147 95.5143L107.768 87.0837ZM140.765 92.748L142.534 88.0716L135.765 85.5102V92.748H140.765ZM140.765 101.631V106.631H145.765V101.631H140.765ZM127.661 101.631H122.661V106.631H127.661V101.631ZM127.661 62.823V57.823H122.661V62.823H127.661ZM138.497 62.823L143.195 61.1143L141.999 57.823H138.497V62.823ZM139.001 64.209L134.302 65.9177L136.565 72.142L141.931 68.2601L139.001 64.209ZM155.318 65.595L151.18 68.4025L151.192 68.4199L151.204 68.4372L155.318 65.595ZM155.129 89.787L159.278 92.5762L159.289 92.5606L159.299 92.545L155.129 89.787ZM144.293 83.298L149.168 84.4061L149.173 84.3832L149.178 84.3602L144.293 83.298ZM144.23 73.281L139.379 74.4937L139.385 74.5184L139.391 74.5431L144.23 73.281ZM140.639 72.273L138.608 67.7039L135.639 69.0236V72.273H140.639ZM140.639 84.432H135.639V88.4429L139.554 89.3129L140.639 84.432ZM145.427 88.63C144.518 88.63 143.562 88.4605 142.534 88.0716L138.995 97.4244C141.075 98.2115 143.227 98.63 145.427 98.63V88.63ZM135.765 92.748V101.631H145.765V92.748H135.765ZM140.765 96.631H127.661V106.631H140.765V96.631ZM132.661 101.631V62.823H122.661V101.631H132.661ZM127.661 67.823H138.497V57.823H127.661V67.823ZM133.798 64.5317L134.302 65.9177L143.699 62.5003L143.195 61.1143L133.798 64.5317ZM141.931 68.2601C142.938 67.5319 144.249 67.067 146.12 67.067V57.067C142.446 57.067 139.011 58.0301 136.07 60.1579L141.931 68.2601ZM146.12 67.067C150.013 67.067 150.968 68.0895 151.18 68.4025L159.455 62.7875C156.475 58.3965 151.298 57.067 146.12 57.067V67.067ZM151.204 68.4372C151.88 69.4153 152.712 72.0445 152.712 77.502H162.712C162.712 71.7035 161.947 66.3947 159.431 62.7528L151.204 68.4372ZM152.712 77.502C152.712 82.7809 151.859 85.666 150.958 87.029L159.299 92.545C161.842 88.7 162.712 83.3951 162.712 77.502H152.712ZM150.979 86.9978C150.608 87.5491 149.444 88.63 145.427 88.63V98.63C150.901 98.63 156.205 97.1489 159.278 92.5762L150.979 86.9978ZM142.655 89.684C143.993 89.684 145.583 89.3154 146.955 88.1544C148.289 87.0259 148.901 85.5836 149.168 84.4061L139.417 82.1899C139.474 81.9364 139.708 81.1871 140.496 80.5206C141.322 79.8216 142.198 79.684 142.655 79.684V89.684ZM149.178 84.3602C149.514 82.8167 149.608 80.6764 149.608 78.321H139.608C139.608 80.6696 139.491 81.8473 139.407 82.2358L149.178 84.3602ZM149.608 78.321C149.608 75.9282 149.498 73.6693 149.068 72.0189L139.391 74.5431C139.391 74.5427 139.393 74.5491 139.396 74.5629C139.399 74.5766 139.403 74.5963 139.408 74.6226C139.419 74.676 139.431 74.7497 139.445 74.8465C139.473 75.0426 139.502 75.3037 139.527 75.6394C139.578 76.3155 139.608 77.2016 139.608 78.321H149.608ZM149.08 72.0683C148.808 70.9813 148.243 69.6001 147.022 68.473C145.704 67.2558 144.092 66.769 142.592 66.769V76.769C141.931 76.769 141.012 76.5342 140.24 75.821C139.565 75.1979 139.399 74.5727 139.379 74.4937L149.08 72.0683ZM142.592 66.769C141.08 66.769 139.705 67.2163 138.608 67.7039L142.669 76.8421C142.757 76.8031 142.824 76.7767 142.872 76.7596C142.896 76.7512 142.913 76.7453 142.926 76.7416C142.938 76.7378 142.944 76.7363 142.943 76.7364C142.943 76.7365 142.935 76.7384 142.921 76.7412C142.907 76.744 142.886 76.7479 142.857 76.752C142.801 76.7599 142.711 76.769 142.592 76.769V66.769ZM135.639 72.273V84.432H145.639V72.273H135.639ZM139.554 89.3129C140.561 89.5367 141.608 89.684 142.655 89.684V79.684C142.525 79.684 142.228 79.6633 141.723 79.5511L139.554 89.3129ZM187.225 70.95L192.222 71.0999L192.225 71.025V70.95H187.225ZM186.847 83.55L181.849 83.4001L181.847 83.475V83.55H186.847ZM187.477 84.747L185.24 89.2191L185.498 89.3477L185.768 89.446L187.477 84.747ZM189.871 84.999L194.82 85.7061L195.636 79.999H189.871V84.999ZM188.674 93.378L189.006 98.3669L193.05 98.0973L193.623 94.0851L188.674 93.378ZM176.893 91.173L180.709 87.9433L179.212 86.173H176.893V91.173ZM176.452 91.173V86.173H174.676L173.299 87.2924L176.452 91.173ZM161.899 91.236L158.271 94.6773L158.317 94.725L158.363 94.7715L161.899 91.236ZM163.096 77.124L160.59 72.7969L160.574 72.8065L160.557 72.8163L163.096 77.124ZM174.436 74.478L174.8 79.4647L179.436 79.1255V74.478H174.436ZM162.214 74.163L157.307 75.1257L158.32 80.2902L163.426 79.0137L162.214 74.163ZM160.261 64.209L159.104 59.3446L154.429 60.4562L155.354 65.1717L160.261 64.209ZM184.705 64.209L181.419 67.9779L181.442 67.9984L181.466 68.0187L184.705 64.209ZM174.814 81.219H179.814V75.5008L174.146 76.2637L174.814 81.219ZM182.227 70.8001L181.849 83.4001L191.844 83.6999L192.222 71.0999L182.227 70.8001ZM181.847 83.55C181.847 85.4605 182.67 87.9337 185.24 89.2191L189.713 80.2749C190.397 80.6171 191.025 81.1951 191.429 81.9615C191.799 82.6651 191.847 83.2712 191.847 83.55H181.847ZM185.768 89.446C187.132 89.9421 188.717 89.999 189.871 89.999V79.999C189.413 79.999 189.116 79.9814 188.945 79.9635C188.863 79.9548 188.841 79.9493 188.867 79.9543C188.886 79.9582 189.004 79.9823 189.185 80.048L185.768 89.446ZM184.921 84.2919L183.724 92.6709L193.623 94.0851L194.82 85.7061L184.921 84.2919ZM188.341 88.3891C185.799 88.5585 184.26 88.63 183.571 88.63V98.63C184.645 98.63 186.508 98.5335 189.006 98.3669L188.341 88.3891ZM183.571 88.63C181.323 88.63 180.792 88.041 180.709 87.9433L173.076 94.4027C175.765 97.581 179.687 98.63 183.571 98.63V88.63ZM176.893 86.173H176.452V96.173H176.893V86.173ZM173.299 87.2924C172.328 88.0808 170.962 88.63 168.829 88.63V98.63C172.827 98.63 176.543 97.5412 179.605 95.0536L173.299 87.2924ZM168.829 88.63C166.666 88.63 165.808 88.0746 165.434 87.7005L158.363 94.7715C161.181 97.5894 164.943 98.63 168.829 98.63V88.63ZM165.526 87.7947C165.07 87.3142 164.568 86.4245 164.568 84.495H154.568C154.568 88.2775 155.619 91.8818 158.271 94.6773L165.526 87.7947ZM164.568 84.495C164.568 82.1439 165.257 81.6536 165.634 81.4317L160.557 72.8163C156.23 75.3664 154.568 79.7901 154.568 84.495H164.568ZM165.601 81.4511C166.991 80.6464 169.841 79.8275 174.8 79.4647L174.071 69.4913C168.698 69.8845 163.988 70.8296 160.59 72.7969L165.601 81.4511ZM179.436 74.478V73.344H169.436V74.478H179.436ZM179.436 73.344C179.436 72.1242 179.1 70.3088 177.575 68.8637C176.1 67.4667 174.343 67.21 173.239 67.21V77.21C172.932 77.21 171.773 77.1423 170.698 76.1233C169.571 75.0562 169.436 73.8078 169.436 73.344H179.436ZM173.239 67.21C170.409 67.21 166.187 68.0156 161.001 69.3123L163.426 79.0137C168.656 77.7064 171.784 77.21 173.239 77.21V67.21ZM167.12 73.2003L165.167 63.2463L155.354 65.1717L157.307 75.1257L167.12 73.2003ZM161.417 69.0734C167.191 67.7006 171.948 67.067 175.759 67.067V57.067C170.917 57.067 165.342 57.8614 159.104 59.3446L161.417 69.0734ZM175.759 67.067C177.676 67.067 179.086 67.2281 180.075 67.4651C180.561 67.5813 180.898 67.7049 181.121 67.808C181.341 67.9103 181.42 67.979 181.419 67.9779L187.99 60.4401C184.89 57.7371 180.271 57.067 175.759 57.067V67.067ZM181.466 68.0187C181.641 68.1676 182.225 68.7524 182.225 70.95H192.225C192.225 67.0156 191.128 63.1064 187.943 60.3993L181.466 68.0187ZM172.987 90.503C174.41 90.503 176.386 90.1254 177.952 88.5056C179.487 86.9173 179.814 84.9721 179.814 83.613H169.814C169.814 83.5139 169.836 82.5137 170.762 81.5554C171.719 80.5656 172.781 80.503 172.987 80.503V90.503ZM179.814 83.613V81.219H169.814V83.613H179.814ZM174.146 76.2637C172.656 76.4643 170.845 76.9242 169.308 78.1064C167.523 79.4795 166.538 81.5047 166.538 83.739H176.538C176.538 84.065 176.469 84.5196 176.231 85.004C175.993 85.4893 175.673 85.8269 175.405 86.0326C175.157 86.2232 174.99 86.2758 175.016 86.2668C175.04 86.2585 175.18 86.2147 175.481 86.1743L174.146 76.2637ZM166.538 83.739C166.538 84.8849 166.753 86.6734 168.036 88.2357C169.474 89.9863 171.445 90.503 172.987 90.503V80.503C173.562 80.503 174.808 80.7257 175.763 81.8883C176.17 82.383 176.362 82.8669 176.451 83.1903C176.536 83.5023 176.538 83.7071 176.538 83.739H166.538ZM191.762 92.307L186.781 91.8665L186.399 96.19L190.626 97.1762L191.762 92.307ZM192.581 83.046L193.748 78.1841L188.111 76.8312L187.6 82.6055L192.581 83.046ZM202.913 83.424L204.669 78.7424L204.596 78.715L204.522 78.6899L202.913 83.424ZM193.463 78.762L196.656 74.9142L196.656 74.9142L193.463 78.762ZM193.715 64.587L190.666 60.6239L190.648 60.6382L190.629 60.6527L193.715 64.587ZM214.631 63.327L219.583 64.0157L220.238 59.3052L215.567 58.4153L214.631 63.327ZM213.308 72.84L212.342 77.7457L217.532 78.768L218.26 73.5287L213.308 72.84ZM203.48 72.714L201.816 77.429L201.874 77.4496L201.933 77.4687L203.48 72.714ZM211.04 76.116L208.093 80.155L208.129 80.1813L208.165 80.207L211.04 76.116ZM214.253 79.518L218.725 77.2819L218.725 77.2819L214.253 79.518ZM210.135 83.613C210.135 85.967 209.486 86.884 208.962 87.3338C208.294 87.9082 206.764 88.63 203.48 88.63V98.63C207.966 98.63 212.264 97.6823 215.48 94.9177C218.842 92.0285 220.135 87.937 220.135 83.613H210.135ZM203.48 88.63C199.816 88.63 196.292 88.2296 192.898 87.4378L190.626 97.1762C194.793 98.1484 199.08 98.63 203.48 98.63V88.63ZM196.743 92.7475L197.562 83.4865L187.6 82.6055L186.781 91.8665L196.743 92.7475ZM191.414 87.9079C196.546 89.1395 200.62 89.936 203.039 89.936V79.936C202.014 79.936 199.116 79.4725 193.748 78.1841L191.414 87.9079ZM203.039 89.936C203.708 89.936 205.071 89.8575 206.404 89.0001C208.116 87.8996 208.921 86.0938 208.921 84.369H198.921C198.921 83.8091 199.033 83.0754 199.427 82.3155C199.83 81.539 200.407 80.9676 200.997 80.5884C202.036 79.92 202.958 79.936 203.039 79.936V89.936ZM208.921 84.369C208.921 82.5036 208.028 81.0821 207.089 80.2016C206.247 79.4126 205.315 78.9846 204.669 78.7424L201.157 88.1056C201.14 88.0992 201.046 88.0631 200.903 87.9827C200.763 87.9043 200.522 87.7523 200.249 87.4969C199.646 86.9314 198.921 85.8564 198.921 84.369H208.921ZM204.522 78.6899C200.394 77.2874 197.928 75.9699 196.656 74.9142L190.27 82.6098C192.946 84.8301 196.78 86.6206 201.304 88.1581L204.522 78.6899ZM196.656 74.9142C196.053 74.4137 195.502 73.6055 195.502 71.706H185.502C185.502 75.9385 186.925 79.8343 190.27 82.6098L196.656 74.9142ZM195.502 71.706C195.502 69.9553 196.031 69.1252 196.801 68.5213L190.629 60.6527C187.115 63.4088 185.502 67.3247 185.502 71.706H195.502ZM196.764 68.5501C197.826 67.7326 199.562 67.067 202.472 67.067V57.067C198.074 57.067 193.972 58.0814 190.666 60.6239L196.764 68.5501ZM202.472 67.067C205.796 67.067 209.531 67.4454 213.695 68.2387L215.567 58.4153C210.911 57.5286 206.54 57.067 202.472 57.067V67.067ZM209.679 62.6383L208.356 72.1513L218.26 73.5287L219.583 64.0157L209.679 62.6383ZM214.274 67.9343C211.478 67.3835 209.191 66.962 207.432 66.6762C205.809 66.4125 204.283 66.202 203.228 66.202V76.202C203.215 76.202 203.406 76.2064 203.922 76.2685C204.396 76.3256 205.027 76.4165 205.828 76.5468C207.429 76.807 209.594 77.2045 212.342 77.7457L214.274 67.9343ZM203.228 66.202C202.454 66.202 200.956 66.3267 199.565 67.3964C197.926 68.6573 197.409 70.4488 197.409 71.832H207.409C207.409 72.7952 207.028 74.2717 205.662 75.3226C204.545 76.1823 203.456 76.202 203.228 76.202V66.202ZM197.409 71.832C197.409 74.0001 198.624 75.4443 199.498 76.1642C200.324 76.8439 201.213 77.2162 201.816 77.429L205.144 67.999C205.033 67.9598 205.387 68.0591 205.855 68.4448C206.372 68.8707 207.409 69.9999 207.409 71.832H197.409ZM201.933 77.4687C205.285 78.5592 207.193 79.4985 208.093 80.155L213.987 72.077C211.779 70.4655 208.647 69.1368 205.027 67.9592L201.933 77.4687ZM208.165 80.207C209.323 81.0204 209.692 81.5756 209.781 81.7541L218.725 77.2819C217.638 75.1084 215.865 73.3956 213.915 72.025L208.165 80.207ZM209.781 81.7541C209.964 82.1202 210.135 82.6948 210.135 83.613H220.135C220.135 81.4232 219.718 79.2678 218.725 77.2819L209.781 81.7541ZM244.072 70.95L249.07 71.0999L249.072 71.025V70.95H244.072ZM243.694 83.55L238.696 83.4001L238.694 83.475V83.55H243.694ZM244.324 84.747L242.088 89.2191L242.345 89.3477L242.615 89.446L244.324 84.747ZM246.718 84.999L251.668 85.7061L252.483 79.999H246.718V84.999ZM245.521 93.378L245.854 98.3669L249.898 98.0973L250.471 94.0851L245.521 93.378ZM233.74 91.173L237.557 87.9433L236.059 86.173H233.74V91.173ZM233.299 91.173V86.173H231.524L230.146 87.2924L233.299 91.173ZM218.746 91.236L215.119 94.6773L215.164 94.725L215.211 94.7715L218.746 91.236ZM219.943 77.124L217.438 72.7969L217.421 72.8065L217.405 72.8163L219.943 77.124ZM231.283 74.478L231.648 79.4647L236.283 79.1255V74.478H231.283ZM219.061 74.163L214.155 75.1257L215.168 80.2902L220.274 79.0137L219.061 74.163ZM217.108 64.209L215.952 59.3446L211.277 60.4562L212.202 65.1717L217.108 64.209ZM241.552 64.209L238.267 67.9779L238.29 67.9984L238.314 68.0187L241.552 64.209ZM231.661 81.219H236.661V75.5008L230.994 76.2637L231.661 81.219ZM239.074 70.8001L238.696 83.4001L248.692 83.6999L249.07 71.0999L239.074 70.8001ZM238.694 83.55C238.694 85.4605 239.517 87.9337 242.088 89.2191L246.56 80.2749C247.245 80.6171 247.873 81.1951 248.276 81.9615C248.647 82.6651 248.694 83.2712 248.694 83.55H238.694ZM242.615 89.446C243.98 89.9421 245.564 89.999 246.718 89.999V79.999C246.261 79.999 245.963 79.9814 245.793 79.9635C245.711 79.9548 245.689 79.9493 245.714 79.9543C245.734 79.9582 245.852 79.9823 246.033 80.048L242.615 89.446ZM241.768 84.2919L240.571 92.6709L250.471 94.0851L251.668 85.7061L241.768 84.2919ZM245.189 88.3891C242.647 88.5585 241.108 88.63 240.418 88.63V98.63C241.492 98.63 243.356 98.5335 245.854 98.3669L245.189 88.3891ZM240.418 88.63C238.17 88.63 237.64 88.041 237.557 87.9433L229.923 94.4027C232.613 97.581 236.534 98.63 240.418 98.63V88.63ZM233.74 86.173H233.299V96.173H233.74V86.173ZM230.146 87.2924C229.176 88.0808 227.81 88.63 225.676 88.63V98.63C229.674 98.63 233.39 97.5412 236.452 95.0536L230.146 87.2924ZM225.676 88.63C223.514 88.63 222.656 88.0746 222.282 87.7005L215.211 94.7715C218.028 97.5894 221.791 98.63 225.676 98.63V88.63ZM222.374 87.7947C221.918 87.3142 221.415 86.4245 221.415 84.495H211.415C211.415 88.2775 212.467 91.8818 215.119 94.6773L222.374 87.7947ZM221.415 84.495C221.415 82.1439 222.105 81.6536 222.482 81.4317L217.405 72.8163C213.077 75.3664 211.415 79.7901 211.415 84.495H221.415ZM222.448 81.4511C223.838 80.6464 226.689 79.8275 231.648 79.4647L230.918 69.4913C225.545 69.8845 220.836 70.8296 217.438 72.7969L222.448 81.4511ZM236.283 74.478V73.344H226.283V74.478H236.283ZM236.283 73.344C236.283 72.1242 235.948 70.3088 234.423 68.8637C232.948 67.4667 231.191 67.21 230.086 67.21V77.21C229.78 77.21 228.621 77.1423 227.545 76.1233C226.419 75.0562 226.283 73.8078 226.283 73.344H236.283ZM230.086 67.21C227.257 67.21 223.035 68.0156 217.849 69.3123L220.274 79.0137C225.503 77.7064 228.632 77.21 230.086 77.21V67.21ZM223.968 73.2003L222.015 63.2463L212.202 65.1717L214.155 75.1257L223.968 73.2003ZM218.265 69.0734C224.038 67.7006 228.796 67.067 232.606 67.067V57.067C227.764 57.067 222.19 57.8614 215.952 59.3446L218.265 69.0734ZM232.606 67.067C234.524 67.067 235.933 67.2281 236.923 67.4651C237.409 67.5813 237.746 67.7049 237.969 67.808C238.189 67.9103 238.268 67.979 238.267 67.9779L244.838 60.4401C241.737 57.7371 237.119 57.067 232.606 57.067V67.067ZM238.314 68.0187C238.489 68.1676 239.072 68.7524 239.072 70.95H249.072C249.072 67.0156 247.975 63.1064 244.79 60.3993L238.314 68.0187ZM229.834 90.503C231.258 90.503 233.234 90.1254 234.799 88.5056C236.335 86.9173 236.661 84.9721 236.661 83.613H226.661C226.661 83.5139 226.683 82.5137 227.61 81.5554C228.566 80.5656 229.629 80.503 229.834 80.503V90.503ZM236.661 83.613V81.219H226.661V83.613H236.661ZM230.994 76.2637C229.504 76.4643 227.692 76.9242 226.156 78.1064C224.371 79.4795 223.385 81.5047 223.385 83.739H233.385C233.385 84.065 233.317 84.5196 233.079 85.004C232.841 85.4893 232.52 85.8269 232.253 86.0326C232.005 86.2232 231.838 86.2758 231.864 86.2668C231.887 86.2585 232.028 86.2147 232.328 86.1743L230.994 76.2637ZM223.385 83.739C223.385 84.8849 223.601 86.6734 224.884 88.2357C226.322 89.9863 228.293 90.503 229.834 90.503V80.503C230.41 80.503 231.656 80.7257 232.611 81.8883C233.017 82.383 233.21 82.8669 233.298 83.1903C233.384 83.5023 233.385 83.7071 233.385 83.739H223.385ZM291.162 72.525L286.791 70.0968L286.779 70.1181L286.767 70.1395L291.162 72.525ZM287.382 76.431L284.632 72.2551L281.363 74.4078L282.668 78.0979L287.382 76.431ZM293.241 93V98H300.312L297.955 91.3331L293.241 93ZM279.318 93L274.515 94.3914L275.561 98H279.318V93ZM275.412 79.518L280.214 78.1266L279.169 74.518H275.412V79.518ZM274.404 79.518V74.518H269.404V79.518H274.404ZM274.404 93V98H279.404V93H274.404ZM261.489 93H256.489V98H261.489V93ZM261.489 53.877V48.877H256.489V53.877H261.489ZM288.957 56.964L285.631 60.6973L285.65 60.7143L285.669 60.7311L288.957 56.964ZM277.743 71.013L273.674 68.1068L273.653 68.1367L273.632 68.1669L277.743 71.013ZM277.743 65.028L273.78 68.0766L273.78 68.0766L277.743 65.028ZM274.152 64.209V59.209H269.152V64.209H274.152ZM274.152 71.832H269.152V76.832H274.152V71.832ZM287.422 66.477C287.422 68.5096 287.072 69.5904 286.791 70.0968L295.533 74.9532C296.931 72.4356 297.422 69.4844 297.422 66.477H287.422ZM286.767 70.1395C286.443 70.7371 285.824 71.4698 284.632 72.2551L290.132 80.6069C292.383 79.1242 294.284 77.2529 295.556 74.9105L286.767 70.1395ZM282.668 78.0979L288.527 94.6669L297.955 91.3331L292.096 74.7641L282.668 78.0979ZM293.241 88H279.318V98H293.241V88ZM284.12 91.6086L280.214 78.1266L270.609 80.9094L274.515 94.3914L284.12 91.6086ZM275.412 74.518H274.404V84.518H275.412V74.518ZM269.404 79.518V93H279.404V79.518H269.404ZM274.404 88H261.489V98H274.404V88ZM266.489 93V53.877H256.489V93H266.489ZM261.489 58.877H278.184V48.877H261.489V58.877ZM278.184 58.877C282.501 58.877 284.637 59.8124 285.631 60.6973L292.283 53.2307C288.656 49.9996 283.611 48.877 278.184 48.877V58.877ZM285.669 60.7311C286.501 61.4573 287.422 62.9812 287.422 66.477H297.422C297.422 61.3208 296.032 56.5027 292.244 53.1969L285.669 60.7311ZM275.727 76.832C277.539 76.832 280.166 76.2965 281.854 73.8591L273.632 68.1669C274.047 67.5669 274.595 67.1892 275.073 66.9949C275.498 66.8226 275.767 66.832 275.727 66.832V76.832ZM281.811 73.9192C283.193 71.9851 283.373 69.6076 283.373 67.989H273.373C273.373 68.2258 273.364 68.4114 273.352 68.5518C273.34 68.6935 273.326 68.7711 273.32 68.7962C273.315 68.823 273.324 68.7687 273.368 68.6574C273.411 68.5462 273.503 68.3465 273.674 68.1068L281.811 73.9192ZM283.373 67.989C283.373 66.4332 283.216 63.9432 281.706 61.9794L273.78 68.0766C273.566 67.7988 273.451 67.5593 273.394 67.4208C273.337 67.282 273.322 67.2047 273.325 67.2183C273.327 67.2296 273.34 67.297 273.352 67.4338C273.364 67.569 273.373 67.7519 273.373 67.989H283.373ZM281.706 61.9794C280.082 59.8689 277.747 59.209 275.79 59.209V69.209C275.727 69.209 275.425 69.2004 275.006 69.0247C274.551 68.8342 274.113 68.5094 273.78 68.0766L281.706 61.9794ZM275.79 59.209H274.152V69.209H275.79V59.209ZM269.152 64.209V71.832H279.152V64.209H269.152ZM274.152 76.832H275.727V66.832H274.152V76.832ZM308.895 73.029L313.153 75.6495L313.153 75.6495L308.895 73.029ZM308.391 75.549H303.391V80.549H308.391V75.549ZM312.927 75.549V80.549H317.927V75.549H312.927ZM299.319 66.225L295.702 62.7726L295.701 62.7739L299.319 66.225ZM321.747 65.217L318.211 68.7525L318.229 68.77L318.246 68.7874L321.747 65.217ZM324.456 81.282V86.282H328.951L329.428 81.8123L324.456 81.282ZM308.643 81.282V76.282H303.259L303.656 81.6514L308.643 81.282ZM322.377 83.361L327.338 82.7363L326.685 77.5531L321.535 78.4323L322.377 83.361ZM323.448 91.866L324.725 96.7002L328.955 95.5827L328.409 91.2413L323.448 91.866ZM299.382 89.472L295.765 92.9244L295.779 92.9386L295.792 92.9527L299.382 89.472ZM310.722 67.21C308.829 67.21 306.207 67.8564 304.636 70.4085L313.153 75.6495C312.773 76.2677 312.22 76.7211 311.649 76.9773C311.139 77.206 310.77 77.21 310.722 77.21V67.21ZM304.636 70.4085C303.57 72.1408 303.391 74.1078 303.391 75.549H313.391C313.391 75.3872 313.397 75.2649 313.404 75.1776C313.408 75.1346 313.412 75.1025 313.415 75.0805C313.418 75.0584 313.42 75.0483 313.42 75.0491C313.42 75.0498 313.417 75.0634 313.41 75.0885C313.403 75.1135 313.391 75.1521 313.373 75.2023C313.337 75.3008 313.271 75.4586 313.153 75.6495L304.636 70.4085ZM308.391 80.549H312.927V70.549H308.391V80.549ZM317.927 75.549V74.541H307.927V75.549H317.927ZM317.927 74.541C317.927 73.0604 317.582 71.0206 316.008 69.3568C314.385 67.6408 312.301 67.21 310.722 67.21V77.21C310.613 77.21 309.631 77.1677 308.743 76.2287C308.337 75.7996 308.124 75.3521 308.02 75.0248C307.971 74.8676 307.948 74.7433 307.937 74.6643C307.927 74.5855 307.927 74.5419 307.927 74.541H317.927ZM300.413 77.817C300.413 73.6751 301.477 71.2061 302.937 69.6761L295.701 62.7739C291.952 66.7039 290.413 71.9629 290.413 77.817H300.413ZM302.936 69.6774C304.359 68.1859 306.73 67.067 310.911 67.067V57.067C304.927 57.067 299.57 58.7201 295.702 62.7726L302.936 69.6774ZM310.911 67.067C315.604 67.067 317.534 68.0752 318.211 68.7525L325.282 61.6815C321.76 58.1588 316.465 57.067 310.911 57.067V67.067ZM318.246 68.7874C319.164 69.6866 319.96 71.2392 319.96 74.226H329.96C329.96 69.4008 328.614 64.9474 325.247 61.6466L318.246 68.7874ZM319.96 74.226C319.96 75.5023 319.816 77.6366 319.484 80.7517L329.428 81.8123C329.767 78.6274 329.96 76.0577 329.96 74.226H319.96ZM324.456 76.282H308.643V86.282H324.456V76.282ZM303.656 81.6514C303.813 83.7614 304.619 86.0479 306.642 87.7033C308.556 89.2693 310.854 89.684 312.801 89.684V79.684C312.143 79.684 312.446 79.5317 312.974 79.9637C313.246 80.1858 313.436 80.4546 313.545 80.6929C313.644 80.9089 313.637 81.0125 313.629 80.9126L303.656 81.6514ZM312.801 89.684C314.544 89.684 318.23 89.1413 323.218 88.2897L321.535 78.4323C316.191 79.3447 313.494 79.684 312.801 79.684V89.684ZM317.416 83.9857L318.487 92.4907L328.409 91.2413L327.338 82.7363L317.416 83.9857ZM322.171 87.0318C318.059 88.1181 314.334 88.63 310.974 88.63V98.63C315.342 98.63 319.933 97.9659 324.725 96.7002L322.171 87.0318ZM310.974 88.63C306.855 88.63 304.454 87.5205 302.971 85.9913L295.792 92.9527C299.685 96.9675 305.013 98.63 310.974 98.63V88.63ZM302.999 86.0196C301.485 84.4341 300.413 81.9336 300.413 77.817H290.413C290.413 83.6964 291.986 88.9659 295.765 92.9244L302.999 86.0196ZM341.023 92.748L342.793 88.0716L336.023 85.5102V92.748H341.023ZM341.023 101.631V106.631H346.023V101.631H341.023ZM327.919 101.631H322.919V106.631H327.919V101.631ZM327.919 62.823V57.823H322.919V62.823H327.919ZM338.755 62.823L343.454 61.1143L342.257 57.823H338.755V62.823ZM339.259 64.209L334.56 65.9177L336.824 72.142L342.19 68.2601L339.259 64.209ZM355.576 65.595L351.439 68.4025L351.451 68.4199L351.463 68.4372L355.576 65.595ZM355.387 89.787L359.537 92.5762L359.548 92.5606L359.558 92.545L355.387 89.787ZM344.551 83.298L349.427 84.4061L349.432 84.3832L349.437 84.3602L344.551 83.298ZM344.488 73.281L339.638 74.4937L339.644 74.5184L339.65 74.5431L344.488 73.281ZM340.897 72.273L338.867 67.7039L335.897 69.0236V72.273H340.897ZM340.897 84.432H335.897V88.4429L339.813 89.3129L340.897 84.432ZM345.685 88.63C344.777 88.63 343.821 88.4605 342.793 88.0716L339.254 97.4244C341.334 98.2115 343.486 98.63 345.685 98.63V88.63ZM336.023 92.748V101.631H346.023V92.748H336.023ZM341.023 96.631H327.919V106.631H341.023V96.631ZM332.919 101.631V62.823H322.919V101.631H332.919ZM327.919 67.823H338.755V57.823H327.919V67.823ZM334.056 64.5317L334.56 65.9177L343.958 62.5003L343.454 61.1143L334.056 64.5317ZM342.19 68.2601C343.197 67.5319 344.508 67.067 346.378 67.067V57.067C342.705 57.067 339.27 58.0301 336.329 60.1579L342.19 68.2601ZM346.378 67.067C350.272 67.067 351.227 68.0895 351.439 68.4025L359.714 62.7875C356.734 58.3965 351.556 57.067 346.378 57.067V67.067ZM351.463 68.4372C352.138 69.4153 352.97 72.0445 352.97 77.502H362.97C362.97 71.7035 362.206 66.3947 359.69 62.7528L351.463 68.4372ZM352.97 77.502C352.97 82.7809 352.118 85.666 351.217 87.029L359.558 92.545C362.1 88.7 362.97 83.3951 362.97 77.502H352.97ZM351.238 86.9978C350.867 87.5491 349.703 88.63 345.685 88.63V98.63C351.16 98.63 356.464 97.1489 359.537 92.5762L351.238 86.9978ZM342.913 89.684C344.251 89.684 345.842 89.3154 347.214 88.1544C348.548 87.0259 349.159 85.5836 349.427 84.4061L339.676 82.1899C339.733 81.9364 339.967 81.1871 340.755 80.5206C341.581 79.8216 342.457 79.684 342.913 79.684V89.684ZM349.437 84.3602C349.773 82.8167 349.866 80.6764 349.866 78.321H339.866C339.866 80.6696 339.75 81.8473 339.665 82.2358L349.437 84.3602ZM349.866 78.321C349.866 75.9282 349.757 73.6693 349.326 72.0189L339.65 74.5431C339.65 74.5427 339.652 74.5491 339.655 74.5629C339.658 74.5766 339.662 74.5963 339.667 74.6226C339.677 74.676 339.69 74.7497 339.704 74.8465C339.732 75.0426 339.761 75.3037 339.786 75.6394C339.837 76.3155 339.866 77.2016 339.866 78.321H349.866ZM349.339 72.0683C349.067 70.9813 348.502 69.6001 347.281 68.473C345.963 67.2558 344.351 66.769 342.85 66.769V76.769C342.19 76.769 341.271 76.5342 340.498 75.821C339.823 75.1979 339.657 74.5727 339.638 74.4937L349.339 72.0683ZM342.85 66.769C341.339 66.769 339.964 67.2163 338.867 67.7039L342.928 76.8421C343.016 76.8031 343.083 76.7767 343.131 76.7596C343.154 76.7512 343.172 76.7453 343.184 76.7416C343.197 76.7378 343.202 76.7363 343.202 76.7364C343.202 76.7365 343.194 76.7384 343.18 76.7412C343.166 76.744 343.145 76.7479 343.116 76.752C343.059 76.7599 342.969 76.769 342.85 76.769V66.769ZM335.897 72.273V84.432H345.897V72.273H335.897ZM339.813 89.3129C340.82 89.5367 341.867 89.684 342.913 89.684V79.684C342.784 79.684 342.487 79.6633 341.982 79.5511L339.813 89.3129ZM363.543 65.784L360.008 62.2485L359.993 62.2636L359.978 62.2788L363.543 65.784ZM386.601 89.85L382.946 86.4384L382.931 86.4548L382.916 86.4714L386.601 89.85ZM363.543 89.85L359.948 93.3251L359.948 93.3251L363.543 89.85ZM376.71 72.462L371.893 73.8002L371.938 73.9649L371.995 74.1261L376.71 72.462ZM373.371 72.462L368.628 70.8809L368.6 70.9655L368.575 71.0512L373.371 72.462ZM373.371 83.865L368.536 85.1375L368.577 85.2933L368.628 85.4461L373.371 83.865ZM376.71 83.865L371.942 82.3593L371.916 82.4426L371.893 82.5268L376.71 83.865ZM364.889 77.817C364.889 72.8339 366.01 70.4069 367.109 69.2892L359.978 62.2788C356.204 66.1171 354.889 71.7121 354.889 77.817H364.889ZM367.079 69.3195C368.247 68.1509 370.551 67.067 375.072 67.067V57.067C369.178 57.067 363.795 58.4611 360.008 62.2485L367.079 69.3195ZM375.072 67.067C379.688 67.067 381.919 68.154 382.972 69.2257L390.104 62.2163C386.37 58.416 380.957 57.067 375.072 57.067V67.067ZM382.972 69.2257C384.011 70.2829 385.129 72.6868 385.129 77.754H395.129C395.129 71.6492 393.853 66.0311 390.104 62.2163L382.972 69.2257ZM385.129 77.754C385.129 82.7638 384.038 85.268 382.946 86.4384L390.257 93.2616C393.868 89.392 395.129 83.8322 395.129 77.754H385.129ZM382.916 86.4714C381.973 87.4999 379.842 88.63 375.135 88.63V98.63C381.097 98.63 386.61 97.2401 390.287 93.2286L382.916 86.4714ZM375.135 88.63C370.514 88.63 368.244 87.5186 367.138 86.3749L359.948 93.3251C363.715 97.2214 369.173 98.63 375.135 98.63V88.63ZM367.138 86.3749C366 85.1978 364.889 82.7354 364.889 77.817H354.889C354.889 83.9026 356.214 89.4622 359.948 93.3251L367.138 86.3749ZM381.528 71.1238C381.17 69.8336 380.392 68.4713 378.989 67.5005C377.645 66.5701 376.201 66.328 375.072 66.328V76.328C374.825 76.328 374.095 76.2749 373.297 75.7225C372.441 75.1297 372.041 74.3344 371.893 73.8002L381.528 71.1238ZM375.072 66.328C373.932 66.328 372.527 66.5744 371.212 67.4512C369.853 68.3576 369.043 69.6341 368.628 70.8809L378.115 74.0431C377.951 74.5339 377.552 75.2434 376.759 75.7718C376.011 76.2706 375.331 76.328 375.072 76.328V66.328ZM368.575 71.0512C368.306 71.9633 368.203 72.9901 368.146 73.8259C368.084 74.7576 368.056 75.8672 368.056 77.124H378.056C378.056 75.9868 378.082 75.1224 378.124 74.5001C378.145 74.1903 378.167 73.977 378.186 73.8428C378.207 73.6887 378.212 73.7244 378.168 73.8728L368.575 71.0512ZM368.056 77.124V78.636H378.056V77.124H368.056ZM368.056 78.636C368.056 81.1716 368.131 83.597 368.536 85.1375L378.207 82.5925C378.235 82.6999 378.176 82.4809 378.126 81.6586C378.082 80.9252 378.056 79.9269 378.056 78.636H368.056ZM368.628 85.4461C369.043 86.6929 369.853 87.9694 371.212 88.8758C372.527 89.7526 373.932 89.999 375.072 89.999V79.999C375.331 79.999 376.011 80.0564 376.759 80.5552C377.552 81.0836 377.951 81.7931 378.115 82.2839L368.628 85.4461ZM375.072 89.999C376.201 89.999 377.645 89.7569 378.989 88.8265C380.392 87.8557 381.17 86.4934 381.528 85.2032L371.893 82.5268C372.041 81.9926 372.441 81.1973 373.297 80.6045C374.095 80.0521 374.825 79.999 375.072 79.999V89.999ZM381.478 85.3707C381.783 84.4068 381.909 83.3309 381.979 82.4215C382.056 81.4284 382.088 80.2608 382.088 78.951H372.088C372.088 80.1192 372.058 81.0096 372.009 81.6545C371.953 82.3831 371.89 82.5252 371.942 82.3593L381.478 85.3707ZM382.088 78.951V77.187H372.088V78.951H382.088ZM382.088 77.187C382.088 75.8988 382.056 74.7507 381.978 73.78C381.909 72.9225 381.78 71.803 381.425 70.7979L371.995 74.1261C371.924 73.9239 371.921 73.8415 371.943 73.9736C371.961 74.0828 371.986 74.277 372.01 74.5775C372.058 75.1818 372.088 76.0392 372.088 77.187H382.088ZM406.054 93V98H411.054V93H406.054ZM393.076 93H388.076V98H393.076V93ZM393.076 62.823V57.823H388.076V62.823H393.076ZM404.29 62.823L409.204 61.9016L408.439 57.823H404.29V62.823ZM404.668 64.839L399.753 65.7604L400.518 69.839H404.668V64.839ZM404.92 64.839V69.839H406.864L408.298 68.5248L404.92 64.839ZM408.385 62.949L409.634 67.7904L409.707 67.7716L409.779 67.7507L408.385 62.949ZM414.118 62.382L419.114 62.5626L419.302 57.382H414.118V62.382ZM413.74 72.84V77.84H418.562L418.736 73.0206L413.74 72.84ZM406.81 73.533L403.431 69.8472L403.431 69.8472L406.81 73.533ZM401.054 76.116V93H411.054V76.116H401.054ZM406.054 88H393.076V98H406.054V88ZM398.076 93V62.823H388.076V93H398.076ZM393.076 67.823H404.29V57.823H393.076V67.823ZM399.375 63.7444L399.753 65.7604L409.582 63.9176L409.204 61.9016L399.375 63.7444ZM404.668 69.839H404.92V59.839H404.668V69.839ZM408.298 68.5248C408.713 68.1449 409.14 67.918 409.634 67.7904L407.135 58.1076C405.026 58.652 403.143 59.6851 401.541 61.1532L408.298 68.5248ZM409.779 67.7507C410.393 67.5724 411.739 67.382 414.118 67.382V57.382C411.456 57.382 408.98 57.5696 406.991 58.1473L409.779 67.7507ZM409.121 62.2014L408.743 72.6594L418.736 73.0206L419.114 62.5626L409.121 62.2014ZM413.74 67.84H409.456V77.84H413.74V67.84ZM409.456 67.84C407.885 67.84 405.372 68.068 403.431 69.8472L410.188 77.2188C409.674 77.6901 409.21 77.8255 409.116 77.8501C409.02 77.8753 409.103 77.84 409.456 77.84V67.84ZM403.431 69.8472C401.302 71.7988 401.054 74.5355 401.054 76.116H411.054C411.054 75.7854 411.091 75.7613 411.041 75.9297C410.989 76.1081 410.788 76.669 410.188 77.2188L403.431 69.8472ZM420.539 91.803L417.338 95.6441L417.396 95.6921L417.455 95.7383L420.539 91.803ZM418.271 71.706H423.271V66.706H418.271V71.706ZM414.932 71.706H409.932V76.706H414.932V71.706ZM414.932 63.201V58.201H409.932V63.201H414.932ZM418.901 63.201V68.201H423.224L423.849 63.9237L418.901 63.201ZM419.72 57.594V52.594H415.397L414.773 56.8713L419.72 57.594ZM431.375 57.594H436.375V52.594H431.375V57.594ZM431.375 63.201H426.375V68.201H431.375V63.201ZM437.108 63.201H442.108V58.201H437.108V63.201ZM437.108 71.706V76.706H442.108V71.706H437.108ZM431.312 71.706V66.706H426.312V71.706H431.312ZM437.045 83.928L442.041 84.1362L442.269 78.6535L436.789 78.9346L437.045 83.928ZM436.667 93L437.165 97.9752L441.482 97.5434L441.663 93.2082L436.667 93ZM427.784 88.63C424.951 88.63 423.883 88.0708 423.624 87.8677L417.455 95.7383C420.304 97.9712 424.066 98.63 427.784 98.63V88.63ZM423.74 87.9619C423.74 87.9619 423.74 87.9619 423.74 87.9618C423.74 87.9618 423.74 87.9617 423.74 87.9615C423.739 87.9611 423.738 87.9599 423.736 87.9575C423.732 87.9532 423.722 87.9415 423.707 87.9191C423.678 87.875 423.619 87.7743 423.553 87.5874C423.415 87.1951 423.271 86.4984 423.271 85.377H413.271C413.271 89.0827 414.188 93.0186 417.338 95.6441L423.74 87.9619ZM423.271 85.377V71.706H413.271V85.377H423.271ZM418.271 66.706H414.932V76.706H418.271V66.706ZM419.932 71.706V63.201H409.932V71.706H419.932ZM414.932 68.201H418.901V58.201H414.932V68.201ZM423.849 63.9237L424.668 58.3167L414.773 56.8713L413.954 62.4783L423.849 63.9237ZM419.72 62.594H431.375V52.594H419.72V62.594ZM426.375 57.594V63.201H436.375V57.594H426.375ZM431.375 68.201H437.108V58.201H431.375V68.201ZM432.108 63.201V71.706H442.108V63.201H432.108ZM437.108 66.706H431.312V76.706H437.108V66.706ZM426.312 71.706V83.361H436.312V71.706H426.312ZM426.312 83.361C426.312 84.3098 426.523 85.9536 427.827 87.3666C429.201 88.8553 430.938 89.18 432.068 89.18V79.18C432.694 79.18 434.053 79.3682 435.175 80.5839C436.228 81.7239 436.312 82.9582 436.312 83.361H426.312ZM432.068 89.18C432.281 89.18 434.187 89.0811 437.301 88.9214L436.789 78.9346C435.151 79.0185 433.919 79.0815 433.091 79.1234C432.677 79.1444 432.366 79.16 432.156 79.1703C432.051 79.1755 431.975 79.1792 431.925 79.1816C431.899 79.1828 431.885 79.1834 431.88 79.1836C431.799 79.1871 431.934 79.18 432.068 79.18V89.18ZM432.049 83.7198L431.671 92.7918L441.663 93.2082L442.041 84.1362L432.049 83.7198ZM436.17 88.0248C431.966 88.4451 429.229 88.63 427.784 88.63V98.63C429.783 98.63 432.968 98.3949 437.165 97.9752L436.17 88.0248ZM452.367 73.029L456.626 75.6495L456.626 75.6495L452.367 73.029ZM451.863 75.549H446.863V80.549H451.863V75.549ZM456.399 75.549V80.549H461.399V75.549H456.399ZM442.791 66.225L439.175 62.7726L439.173 62.7739L442.791 66.225ZM465.219 65.217L461.684 68.7525L461.701 68.77L461.719 68.7874L465.219 65.217ZM467.928 81.282V86.282H472.423L472.9 81.8123L467.928 81.282ZM452.115 81.282V76.282H446.731L447.129 81.6514L452.115 81.282ZM465.849 83.361L470.81 82.7363L470.158 77.5531L465.008 78.4323L465.849 83.361ZM466.92 91.866L468.197 96.7002L472.428 95.5827L471.881 91.2413L466.92 91.866ZM442.854 89.472L439.238 92.9244L439.251 92.9386L439.265 92.9527L442.854 89.472ZM454.194 67.21C452.302 67.21 449.68 67.8564 448.109 70.4085L456.626 75.6495C456.245 76.2677 455.693 76.7211 455.121 76.9773C454.611 77.206 454.243 77.21 454.194 77.21V67.21ZM448.109 70.4085C447.043 72.1408 446.863 74.1078 446.863 75.549H456.863C456.863 75.3872 456.869 75.2649 456.877 75.1776C456.881 75.1346 456.884 75.1025 456.887 75.0805C456.89 75.0584 456.892 75.0483 456.892 75.0491C456.892 75.0498 456.889 75.0634 456.883 75.0885C456.876 75.1135 456.864 75.1521 456.846 75.2023C456.81 75.3008 456.743 75.4586 456.626 75.6495L448.109 70.4085ZM451.863 80.549H456.399V70.549H451.863V80.549ZM461.399 75.549V74.541H451.399V75.549H461.399ZM461.399 74.541C461.399 73.0604 461.054 71.0206 459.481 69.3568C457.857 67.6408 455.773 67.21 454.194 67.21V77.21C454.086 77.21 453.104 77.1677 452.216 76.2287C451.81 75.7996 451.596 75.3521 451.493 75.0248C451.443 74.8676 451.421 74.7433 451.41 74.6643C451.399 74.5855 451.399 74.5419 451.399 74.541H461.399ZM443.885 77.817C443.885 73.6751 444.95 71.2061 446.409 69.6761L439.173 62.7739C435.425 66.7039 433.885 71.9629 433.885 77.817H443.885ZM446.408 69.6774C447.832 68.1859 450.203 67.067 454.383 67.067V57.067C448.4 57.067 443.043 58.7201 439.175 62.7726L446.408 69.6774ZM454.383 67.067C459.077 67.067 461.007 68.0752 461.684 68.7525L468.755 61.6815C465.232 58.1588 459.938 57.067 454.383 57.067V67.067ZM461.719 68.7874C462.636 69.6866 463.432 71.2392 463.432 74.226H473.432C473.432 69.4008 472.087 64.9474 468.72 61.6466L461.719 68.7874ZM463.432 74.226C463.432 75.5023 463.289 77.6366 462.957 80.7517L472.9 81.8123C473.24 78.6274 473.432 76.0577 473.432 74.226H463.432ZM467.928 76.282H452.115V86.282H467.928V76.282ZM447.129 81.6514C447.285 83.7614 448.092 86.0479 450.115 87.7033C452.029 89.2693 454.327 89.684 456.273 89.684V79.684C455.616 79.684 455.919 79.5317 456.447 79.9637C456.719 80.1858 456.909 80.4546 457.018 80.6929C457.116 80.9089 457.109 81.0125 457.102 80.9126L447.129 81.6514ZM456.273 89.684C458.016 89.684 461.703 89.1413 466.691 88.2897L465.008 78.4323C459.664 79.3447 456.966 79.684 456.273 79.684V89.684ZM460.889 83.9857L461.96 92.4907L471.881 91.2413L470.81 82.7363L460.889 83.9857ZM465.643 87.0318C461.531 88.1181 457.806 88.63 454.446 88.63V98.63C458.814 98.63 463.406 97.9659 468.197 96.7002L465.643 87.0318ZM454.446 88.63C450.327 88.63 447.927 87.5205 446.444 85.9913L439.265 92.9527C443.158 96.9675 448.486 98.63 454.446 98.63V88.63ZM446.471 86.0196C444.958 84.4341 443.885 81.9336 443.885 77.817H433.885C433.885 83.6964 435.459 88.9659 439.238 92.9244L446.471 86.0196ZM471.14 92.307L466.159 91.8665L465.777 96.19L470.004 97.1762L471.14 92.307ZM471.959 83.046L473.126 78.1841L467.489 76.8312L466.978 82.6055L471.959 83.046ZM482.291 83.424L484.047 78.7424L483.974 78.715L483.9 78.6899L482.291 83.424ZM472.841 78.762L476.034 74.9142L476.034 74.9142L472.841 78.762ZM473.093 64.587L470.044 60.6239L470.026 60.6382L470.007 60.6527L473.093 64.587ZM494.009 63.327L498.961 64.0157L499.616 59.3052L494.945 58.4153L494.009 63.327ZM492.686 72.84L491.72 77.7457L496.91 78.768L497.638 73.5287L492.686 72.84ZM482.858 72.714L481.194 77.429L481.252 77.4496L481.311 77.4687L482.858 72.714ZM490.418 76.116L487.471 80.155L487.507 80.1813L487.543 80.207L490.418 76.116ZM493.631 79.518L498.103 77.2819L498.103 77.2819L493.631 79.518ZM489.513 83.613C489.513 85.967 488.864 86.884 488.34 87.3338C487.672 87.9082 486.142 88.63 482.858 88.63V98.63C487.344 98.63 491.642 97.6823 494.858 94.9177C498.22 92.0285 499.513 87.937 499.513 83.613H489.513ZM482.858 88.63C479.194 88.63 475.669 88.2296 472.276 87.4378L470.004 97.1762C474.17 98.1484 478.458 98.63 482.858 98.63V88.63ZM476.121 92.7475L476.94 83.4865L466.978 82.6055L466.159 91.8665L476.121 92.7475ZM470.792 87.9079C475.923 89.1395 479.998 89.936 482.417 89.936V79.936C481.392 79.936 478.494 79.4725 473.126 78.1841L470.792 87.9079ZM482.417 89.936C483.086 89.936 484.449 89.8575 485.782 89.0001C487.494 87.8996 488.299 86.0938 488.299 84.369H478.299C478.299 83.8091 478.411 83.0754 478.805 82.3155C479.208 81.539 479.785 80.9676 480.375 80.5884C481.414 79.92 482.336 79.936 482.417 79.936V89.936ZM488.299 84.369C488.299 82.5036 487.406 81.0821 486.467 80.2016C485.625 79.4126 484.693 78.9846 484.047 78.7424L480.535 88.1056C480.518 88.0992 480.424 88.0631 480.281 87.9827C480.141 87.9043 479.9 87.7523 479.627 87.4969C479.024 86.9314 478.299 85.8564 478.299 84.369H488.299ZM483.9 78.6899C479.772 77.2874 477.306 75.9699 476.034 74.9142L469.648 82.6098C472.324 84.8301 476.158 86.6206 480.682 88.1581L483.9 78.6899ZM476.034 74.9142C475.431 74.4137 474.88 73.6055 474.88 71.706H464.88C464.88 75.9385 466.303 79.8343 469.648 82.6098L476.034 74.9142ZM474.88 71.706C474.88 69.9553 475.409 69.1252 476.179 68.5213L470.007 60.6527C466.493 63.4088 464.88 67.3247 464.88 71.706H474.88ZM476.142 68.5501C477.204 67.7326 478.94 67.067 481.85 67.067V57.067C477.452 57.067 473.35 58.0814 470.044 60.6239L476.142 68.5501ZM481.85 67.067C485.174 67.067 488.909 67.4454 493.073 68.2387L494.945 58.4153C490.289 57.5286 485.918 57.067 481.85 57.067V67.067ZM489.057 62.6383L487.734 72.1513L497.638 73.5287L498.961 64.0157L489.057 62.6383ZM493.652 67.9343C490.856 67.3835 488.569 66.962 486.81 66.6762C485.187 66.4125 483.661 66.202 482.606 66.202V76.202C482.593 76.202 482.783 76.2064 483.3 76.2685C483.774 76.3256 484.405 76.4165 485.206 76.5468C486.807 76.807 488.972 77.2045 491.72 77.7457L493.652 67.9343ZM482.606 66.202C481.832 66.202 480.334 66.3267 478.943 67.3964C477.304 68.6573 476.787 70.4488 476.787 71.832H486.787C486.787 72.7952 486.406 74.2717 485.04 75.3226C483.923 76.1823 482.834 76.202 482.606 76.202V66.202ZM476.787 71.832C476.787 74.0001 478.002 75.4443 478.876 76.1642C479.702 76.8439 480.591 77.2162 481.194 77.429L484.522 67.999C484.411 67.9598 484.765 68.0591 485.233 68.4448C485.75 68.8707 486.787 69.9999 486.787 71.832H476.787ZM481.311 77.4687C484.663 78.5592 486.571 79.4985 487.471 80.155L493.365 72.077C491.157 70.4655 488.025 69.1368 484.405 67.9592L481.311 77.4687ZM487.543 80.207C488.701 81.0204 489.07 81.5756 489.159 81.7541L498.103 77.2819C497.016 75.1084 495.243 73.3956 493.293 72.025L487.543 80.207ZM489.159 81.7541C489.342 82.1202 489.513 82.6948 489.513 83.613H499.513C499.513 81.4232 499.096 79.2678 498.103 77.2819L489.159 81.7541Z" fill="white" mask="url(#path-1-outside-1_32_12)"/>
</svg>
